<?xml version="1.0" encoding="UTF-8" standalone="no"?>
<svg width="24px" height="24px" viewBox="0 0 24 24" version="1.1" xmlns="http://www.w3.org/2000/svg" xmlns:xlink="http://www.w3.org/1999/xlink" xmlns:sketch="http://www.bohemiancoding.com/sketch/ns">
    <!-- Generator: Sketch 3.3.3 (12072) - http://www.bohemiancoding.com/sketch -->
    <title>list</title>
    <desc>Created with Sketch.</desc>
    <defs></defs>
    <g id="Page-1" stroke="none" stroke-width="1" fill="none" fill-rule="evenodd" sketch:type="MSPage">
        <path d="M8.7910732,10.7975732 C6.81692234,11.4377747 5.62899202,13.5092191 6.1083038,15.5649439 L6.68683308,18.0462036 C6.93811705,19.1239378 8.03833383,20 9.14354977,20 L14.8561883,20 C15.9608103,20 17.0613137,19.1252555 17.312905,18.0462036 L17.8914342,15.5649439 C18.2337214,14.0969052 17.7238344,12.6190827 16.6850371,11.6616729 C15.8134229,13.035281 14.5042694,14 12.971367,14 C11.1334646,14 9.6172074,12.613191 8.7910732,10.7975732 L8.7910732,10.7975732 Z M12.971367,12 C14.5809975,12 15.8858608,9.65521885 15.8858608,7.72222222 C15.8858608,5.7892256 14.5809975,5 12.971367,5 C11.3617365,5 10.0568731,5.7892256 10.0568731,7.72222222 C10.0568731,9.65521885 11.3617365,12 12.971367,12 Z" id="Rectangle-1-Copy-7" fill="#000000" sketch:type="MSShapeGroup"></path>
    </g>
</svg>