<?xml version="1.0" encoding="UTF-8" standalone="no"?>
<svg width="24px" height="24px" viewBox="0 0 24 24" version="1.1" xmlns="http://www.w3.org/2000/svg" xmlns:xlink="http://www.w3.org/1999/xlink" xmlns:sketch="http://www.bohemiancoding.com/sketch/ns">
    <!-- Generator: Sketch 3.3.3 (12072) - http://www.bohemiancoding.com/sketch -->
    <title>intern</title>
    <desc>Created with Sketch.</desc>
    <defs></defs>
    <g id="Page-1" stroke="none" stroke-width="1" fill="none" fill-rule="evenodd" sketch:type="MSPage">
        <path d="M5,10.9236734 C5,10.3695517 5.31896508,9.61355155 5.7227577,9.22516471 L10.5580831,4.57432008 C11.3544318,3.8083542 12.6459961,3.80876577 13.4419169,4.57432008 L18.2772423,9.22516471 C18.6764104,9.60910342 19,10.3664632 19,10.9236734 L19,18.9966738 C19,19.5507956 18.5500512,20 17.9931545,20 L6.00684547,20 C5.45078007,20 5,19.5538841 5,18.9966738 L5,10.9236734 Z M16.5710108,14.0512184 C16.9345698,14.5180233 17.0919797,15.1479893 16.9457171,15.7762254 L16.6564525,17.0186927 C16.5306569,17.5590178 15.9976096,17.9970378 15.4573684,17.9970378 L12.5425006,17.9970378 C12.0060604,17.9970378 11.4690585,17.5583579 11.3434165,17.0186927 L11.0541519,15.7762254 C10.8289875,14.8090854 11.3255382,13.8384675 12.1808165,13.4646993 C12.5417321,14.5732584 13.4112006,15.4933351 14.5,15.4933351 C15.3890699,15.4933351 16.1318966,14.8798555 16.5710108,14.0512184 L16.5710108,14.0512184 Z M14.5,14.491854 C15.3284271,14.491854 16,13.317727 16,12.3497972 C16,11.3818674 15.3284271,10.9866702 14.5,10.9866702 C13.6715729,10.9866702 13,11.3818674 13,12.3497972 C13,13.317727 13.6715729,14.491854 14.5,14.491854 Z" id="Rectangle-3-Copy-8" fill="#000000" sketch:type="MSShapeGroup"></path>
    </g>
</svg>