<?xml version="1.0" encoding="UTF-8" standalone="no"?>
<svg width="24px" height="24px" viewBox="0 0 24 24" version="1.1" xmlns="http://www.w3.org/2000/svg" xmlns:xlink="http://www.w3.org/1999/xlink" xmlns:sketch="http://www.bohemiancoding.com/sketch/ns">
    <!-- Generator: Sketch 3.3.3 (12072) - http://www.bohemiancoding.com/sketch -->
    <title>extern</title>
    <desc>Created with Sketch.</desc>
    <defs></defs>
    <g id="Page-1" stroke="none" stroke-width="1" fill="none" fill-rule="evenodd" sketch:type="MSPage">
        <path d="M11.6986773,10.7160743 C9.83763884,11.4170694 8.74251273,13.4045081 9.21447918,15.3818118 L9.61243358,17.049042 C9.86925045,18.1249764 10.9774673,19 12.0868789,19 L17.0202919,19 C18.1380841,19 19.2375504,18.1265263 19.4947373,17.049042 L19.8926917,15.3818118 C20.1507202,14.300801 19.9400305,13.2160035 19.3914355,12.3402912 C18.5221473,13.3425221 17.3706462,14 16.0613784,14 C14.1315262,14 12.5444468,12.5715263 11.6986773,10.7160743 L11.6986773,10.7160743 Z M10.136282,9.24773481 L9.23970238,8.37488094 C8.84830112,7.99383716 8.20214589,7.98954074 7.80633143,8.37488094 L4.71668547,11.382767 C4.32528422,11.7638108 4,12.5243509 4,13.0718846 L4,18.0086025 C4,18.5459914 4.44890033,19 5.00264695,19 L8.33582555,19 C8.02020902,18.5521447 7.78493923,18.0488322 7.65659761,17.511145 L7.26126399,15.8548946 C6.6326223,13.2211999 7.85110459,10.5481102 10.136282,9.24773481 L10.136282,9.24773481 Z M16.0613784,12 C17.7267072,12 19.076723,9.65521885 19.076723,7.72222222 C19.076723,5.7892256 17.7267072,5 16.0613784,5 C14.3960496,5 13.0460338,5.7892256 13.0460338,7.72222222 C13.0460338,9.65521885 14.3960496,12 16.0613784,12 Z" id="Rectangle-3-Copy-9" fill="#000000" sketch:type="MSShapeGroup"></path>
    </g>
</svg>